<svg height="512" viewBox="0 0 512 512" width="512" xmlns="http://www.w3.org/2000/svg"><g id="Flat"><path d="m230.493 436.469a182.378 182.378 0 0 1 -137.847-261.428l15.488 11.724.357-79.992-76.891 22.054 20.839 15.773a231.449 231.449 0 0 0 -26.139 78.934c-17.931 126.858 70.376 244.229 197.234 262.155a231.416 231.416 0 0 0 183.266-53.424l-37.052-33.855a181.761 181.761 0 0 1 -139.255 38.059z" fill="#c6dc3a"/><path d="m385.373 385.373-17.373-17.373v-104a112.042 112.042 0 0 0 -82.031-107.938l26.031-44.062h-112l26.031 44.062a112.042 112.042 0 0 0 -82.031 107.938v104l-17.373 17.373a22.627 22.627 0 0 0 -6.627 16 22.628 22.628 0 0 0 22.627 22.627h226.746a22.628 22.628 0 0 0 22.627-22.627 22.627 22.627 0 0 0 -6.627-16z" fill="#86b63b"/><path d="m212.81 206.431-9.62-12.785a88.281 88.281 0 0 1 14.456-8.841l7 14.39a72.231 72.231 0 0 0 -11.836 7.236z" fill="#92bf4a"/><path d="m184 272h-16v-8a87.768 87.768 0 0 1 22.749-58.989l11.863 10.734a71.8 71.8 0 0 0 -18.612 48.255z" fill="#92bf4a"/><path d="m253.333 376h-61.333a24 24 0 0 0 -24 24 24 24 0 0 0 24 24h-16l-90.967-41.667a26.143 26.143 0 0 0 -25.248 1.921 26.145 26.145 0 0 0 -11.785 21.846v1.739a26.142 26.142 0 0 0 14.453 23.384l93.277 46.639a96 96 0 0 0 42.933 10.138h169.337v-112a115.513 115.513 0 0 0 -112.623-1.115z" fill="#fdc8a2"/><path d="m368 376h96v112h-96z" fill="#375e8d"/><circle cx="408" cy="448" fill="#2b4c73" r="16"/><path d="m264 264v-32a16.019 16.019 0 0 1 16 16h16a32.036 32.036 0 0 0 -32-32v-16h-16v16a32 32 0 0 0 0 64v32a16.019 16.019 0 0 1 -16-16h-16a32.036 32.036 0 0 0 32 32v16h16v-16a32 32 0 0 0 0-64zm-32-16a16.019 16.019 0 0 1 16-16v32a16.019 16.019 0 0 1 -16-16zm32 64v-32a16 16 0 0 1 0 32z" fill="#6c992a"/><path d="m288.45 26.3a231.151 231.151 0 0 0 -164.482 38.95l26.705 41.988a182.327 182.327 0 0 1 268.627 229.812l-15.67-11.862-.358 79.992 76.893-22.055-20.671-15.648a231.459 231.459 0 0 0 26.195-79.027c17.926-126.858-70.381-244.229-197.239-262.15z" fill="#c6dc3a"/><path d="m192 416h64v16h-64z" fill="#fdb683"/></g></svg>