<svg id="Capa_1" enable-background="new 0 0 497 497" height="512" viewBox="0 0 497 497" width="512" xmlns="http://www.w3.org/2000/svg"><g id="_x3C_Group_x3E__56_"><path d="m407.75 456.888-22.846-149.133 22.846-19.445v-240.81c0-16.569-13.431-30-30-30h-55.454l-106.177 10-100.915-10h-55.454c-5.407-.028-10.552 1.446-15.005 4.042-8.891 5.183-9.149 21.819-9.118 32.937l-.856 408.34c0 16.569 13.431 30 30 30h302.26c14.929 0 28.55-3.982 35.456-16.081-2.72 1.553-5.645 2.783-8.714 3.671 8.288-5.523 13.977-13.366 13.977-23.521z" fill="#bed9fd"/><path d="m407.75 456.89v-168.58c-11.92-4.09-24.71-6.31-38-6.31-31.77 0-61.53 12.48-83.8 35.13-.72.74-1.43 1.49-2.12 2.24-20.37 21.81-31.58 50.26-31.58 80.13 0 29.684 11.065 56.829 29.283 77.527 1.704 1.936.33 4.973-2.249 4.973h-219.534c-8.284 0-15-6.716-15-15v-445.45c-8.9 5.18-15.03 14.83-15 25.95v419.5c0 16.569 13.431 30 30 30h307.89c12.65 0 23.92-5.86 31.27-15h-.321c1.457-1.557 2.776-3.291 3.901-5.26-2.72 1.55-5.65 2.78-8.72 3.67 8.29-5.52 13.98-13.37 13.98-23.52z" fill="#9ec8fc"/><path d="m357.197 459.925h-289.532l-2.893-406.127 9.978-6.298h40.454l103.186 10 103.906-10h52.454c1.657 0 3 1.343 3 3v231.77l-19.185 24.464 19.185 157.266c0 1.656-18.896-4.075-20.553-4.075z" fill="#f7f9fa"/><path d="m115.204 17.5v30l9.615 9.021c0 12.702 8.063 15.319 20.766 15.319l148.803 1.702c12.703 0 22.09-5 22.09-17.702l5.817-8.34v-30z" fill="#9ec8fc"/><path d="m115.204 47.5v8.277c0 12.703 10.297 23 23 23h161.092c12.703 0 23-10.297 23-23v-8.277z" fill="#e9edf1"/><path d="m296.25 0h-155c-5.523 0-10 4.477-10 10v43c0 5.523 4.477 10 10 10h155c5.523 0 10-4.477 10-10 0-6.63 0-35.805 0-43 0-5.523-4.477-10-10-10z" fill="#f7f9fa"/><g><g><path d="m332.613 198.173c-6.78 0-11.02-.789-17.401-4.963-3.466-2.268-4.438-6.916-2.17-10.382 2.268-3.467 6.917-4.438 10.382-2.17 3.613 2.364 4.791 2.541 9.727 2.514 4.748-.031 6.639-3.757 7.008-5.954.331-1.966-.042-4.581-3.69-5.87-1.483-.524-2.884-.941-4.239-1.345-4.734-1.41-9.63-2.868-13.896-7.957-3.404-4.06-4.734-9.947-3.558-15.749 1.269-6.256 5.16-11.463 10.677-14.287 8.695-4.449 17.653-1.189 23.137 3.344 3.193 2.639 3.642 7.367 1.002 10.559s-7.367 3.641-10.559 1.002c-.383-.317-3.822-3.05-6.748-1.552-2.029 1.038-2.64 3.083-2.809 3.914-.323 1.591.044 2.765.351 3.131 1.305 1.557 2.737 2.042 6.684 3.218 1.461.436 3.118.929 4.957 1.579 9.748 3.446 15.167 12.488 13.483 22.499-1.787 10.628-10.913 18.395-21.7 18.467-.215.002-.428.002-.638.002z" fill="#b3e59f"/></g><g><path d="m333.534 207.079c-4.142 0-7.5-3.358-7.5-7.5v-8.908c0-4.142 3.358-7.5 7.5-7.5s7.5 3.358 7.5 7.5v8.908c0 4.142-3.358 7.5-7.5 7.5z" fill="#b3e59f"/></g><g><path d="m333.534 144.91c-4.142 0-7.5-3.358-7.5-7.5v-7.832c0-4.142 3.358-7.5 7.5-7.5s7.5 3.358 7.5 7.5v7.832c0 4.143-3.358 7.5-7.5 7.5z" fill="#b3e59f"/></g></g><path d="m291.388 169.579h-187.638l-7.42 2.538c-1.657 0-3 1.343-3 3l-2.106 18.83c0 1.657 1.343 3 3 3l195.362 1.178c1.657 0 3-1.343 3-3l1.803-9.545v-13.001c-.001-1.657-1.344-3-3.001-3z" fill="#b3e59f"/><path d="m294.39 185.58v11c0 1.657-1.343 3-3 3h-198.64c-1.657 0-3-1.343-3-3v-24c0-1.657 1.343-3 3-3h11v14c0 1.105.895 2 2 2z" fill="#95d6a4"/><g><path d="m294.388 147.079h-174.638c-4.142 0-7.5-3.358-7.5-7.5s3.358-7.5 7.5-7.5h174.638c4.142 0 7.5 3.358 7.5 7.5s-3.358 7.5-7.5 7.5z" fill="#e9edf1"/></g><g><path d="m268.75 116.911h-100c-4.142 0-7.5-3.358-7.5-7.5s3.358-7.5 7.5-7.5h100c4.142 0 7.5 3.358 7.5 7.5s-3.358 7.5-7.5 7.5z" fill="#e9edf1"/></g><g><path d="m294.388 237.079h-174.638c-4.142 0-7.5-3.358-7.5-7.5s3.358-7.5 7.5-7.5h174.638c4.142 0 7.5 3.358 7.5 7.5s-3.358 7.5-7.5 7.5z" fill="#e9edf1"/></g><g><path d="m347.75 267.079h-228c-4.142 0-7.5-3.358-7.5-7.5s3.358-7.5 7.5-7.5h228c4.142 0 7.5 3.358 7.5 7.5s-3.358 7.5-7.5 7.5z" fill="#e9edf1"/></g><g><path d="m347.75 342.079h-228c-4.142 0-7.5-3.358-7.5-7.5s3.358-7.5 7.5-7.5h228c4.142 0 7.5 3.358 7.5 7.5s-3.358 7.5-7.5 7.5z" fill="#e9edf1"/></g><g><path d="m347.75 372.079h-258c-4.142 0-7.5-3.358-7.5-7.5s3.358-7.5 7.5-7.5h258c4.142 0 7.5 3.358 7.5 7.5s-3.358 7.5-7.5 7.5z" fill="#e9edf1"/></g><g fill="#e9edf1"><circle cx="89.75" cy="139.579" r="7.5"/><circle cx="89.75" cy="229.579" r="7.5"/><circle cx="89.75" cy="259.579" r="7.5"/><circle cx="89.75" cy="334.579" r="7.5"/></g><g><path d="m318.444 312.079h-181.446c-4.555 0-8.248-3.358-8.248-7.5s3.693-7.5 8.248-7.5h181.446c4.555 0 8.248 3.358 8.248 7.5s-3.693 7.5-8.248 7.5z" fill="#e9edf1"/></g><g><path d="m89.679 444.501c-3.669 0-6.876-2.695-7.414-6.433-.59-4.1 2.255-7.902 6.355-8.491 4.652-.669 8.642-2.245 11.857-4.681 4.474-3.391 6.671-7.832 8.609-11.75 2.248-4.544 5.045-10.198 11.725-10.449 8.576-.33 12.152 8.636 15.027 15.834.55 1.377 1.306 3.268 2.035 4.852 2.897-4.428 6.392-13.795 8.069-18.292 1.416-3.793 2.752-7.376 4.033-10.071 1.071-2.252 4.333-9.105 11.241-7.812 1.49.279 6.403 1.738 7.083 8.791.164 1.699.119 3.653.067 5.915-.151 6.602-.38 16.579 5.263 20.504 1.714 1.192 5.482 2.025 9.701 1.035 3.269-.766 5.827-2.449 7.019-4.618 1.816-3.305 1.041-8.377-1.975-12.922-2.29-3.451-1.349-8.106 2.103-10.396 3.45-2.291 8.105-1.35 10.396 2.103 6.157 9.28 7.162 20.177 2.621 28.439-3.284 5.976-9.229 10.237-16.74 11.998-7.8 1.829-16.111.556-21.689-3.325-4.961-3.451-7.854-8.13-9.528-13.049-4.386 10.109-9.878 18.659-18.484 18.66-.18 0-.358-.004-.541-.011-8.253-.339-11.627-8.785-14.604-16.236-.204-.509-.437-1.092-.686-1.704-2.276 4.371-5.666 9.896-11.685 14.458-5.265 3.99-11.583 6.539-18.782 7.574-.361.051-.721.077-1.076.077z" fill="#bed9fd"/></g><path d="m377.75 282.27c-2.64-.18-5.31-.27-8-.27-31.77 0-61.53 12.48-83.8 35.13-.72.74-1.43 1.49-2.12 2.24-20.37 21.81-31.58 50.26-31.58 80.13 0 17.192 3.717 33.524 10.379 48.249.902 1.993-.533 4.251-2.721 4.251h-182.158c-1.657 0-3-1.343-3-3v-401.5h-12c-1.657 0-3 1.343-3 3v413.5c0 1.657 1.343 3 3 3h312c.917 0 1.972-.685 2.344-1.523l.656-1.477z" fill="#e9edf1"/><path d="m355.25 364.58c0 4.14-3.36 7.5-7.5 7.5h-92.28c1.22-5.11 2.78-10.12 4.68-15h87.6c4.14 0 7.5 3.36 7.5 7.5z" fill="#dce6eb"/><path d="m355.25 334.58c0 4.14-3.36 7.5-7.5 7.5h-80.54c2.93-5.22 6.28-10.24 10.02-15h70.52c4.14 0 7.5 3.36 7.5 7.5z" fill="#dce6eb"/><path d="m326.69 304.58c0 4.14-3.69 7.5-8.25 7.5h-27.21c6.44-5.81 13.42-10.83 20.82-15h6.39c4.56 0 8.25 3.36 8.25 7.5z" fill="#dce6eb"/><g><path d="m467.25 399.499c0-53.848-43.652-97.5-97.5-97.5-27.226 0-51.846 11.159-69.534 29.154-17.296 17.595-23.444 40.71-23.444 67.332 0 53.848 39.131 94.335 92.979 94.335 24.681 0 47.22-4.991 64.396-20.111 20.296-17.868 33.103-44.043 33.103-73.21z" fill="#b3e59f"/><path d="m444.88 461.63c-17.87 21.61-44.89 35.37-75.13 35.37-53.85 0-97.5-43.65-97.5-97.5 0-30.24 13.76-57.26 35.37-75.13-13.98 16.87-22.37 38.52-22.37 62.13 0 53.85 43.65 97.5 97.5 97.5 23.61 0 45.26-8.39 62.13-22.37z" fill="#95d6a4"/><path d="m437.25 399.499c0-37.279-30.221-67.5-67.5-67.5-15.82 0-30.368 5.442-41.876 14.557-15.61 12.364-23.273 30.47-23.273 51.929 0 37.279 28 66.485 65.279 66.485 16.928 0 32.269-4.202 44.118-14.496 14.245-12.375 23.252-30.623 23.252-50.975z" fill="#f7f9fa"/><path d="m423.54 440.29c-12.33 16.23-31.84 26.71-53.79 26.71-37.28 0-67.5-30.22-67.5-67.5 0-21.95 10.48-41.46 26.71-53.79-8.6 11.33-13.71 25.46-13.71 40.79 0 37.28 30.22 67.5 67.5 67.5 15.33 0 29.46-5.11 40.79-13.71z" fill="#e9edf1"/><g><g><path d="m366.981 432.527c-2.582 0-4.988-1.33-6.36-3.525l-18.732-29.977c-2.195-3.513-1.127-8.14 2.386-10.335 3.514-2.197 8.14-1.126 10.335 2.386l12.117 19.392 22.027-38.152c2.071-3.588 6.657-4.816 10.245-2.745 3.587 2.071 4.816 6.658 2.745 10.245l-28.268 48.962c-1.316 2.28-3.732 3.703-6.364 3.749-.043 0-.087 0-.131 0z" fill="#b3e59f"/></g></g></g></g></svg>