<svg xmlns="http://www.w3.org/2000/svg" id="a" viewBox="0 0 235 68.71"><defs><style>.b{fill:#fff;}</style></defs><path class="b" d="M23.47,41.84c-.11,0-.21-.07-.24-.17-.16-.51-.33-1.03-.52-1.54l-.49-1.41h-5.28l-.49,1.41c-.18,.52-.35,1.04-.51,1.54-.04,.1-.13,.17-.24,.17h-3.39c-.08,0-.16-.04-.21-.11-.05-.07-.06-.16-.03-.24,.54-1.56,1.06-3.01,1.55-4.32,.49-1.32,.97-2.58,1.43-3.74,.47-1.17,.93-2.29,1.39-3.34,.45-1.05,.93-2.08,1.41-3.09,.04-.09,.14-.14,.23-.14h3.09c.09,0,.19,.05,.23,.14,.47,.99,.95,2.03,1.41,3.08,.47,1.05,.94,2.17,1.4,3.33,.46,1.16,.95,2.42,1.44,3.74,.49,1.31,1,2.76,1.55,4.32,.03,.08,.02,.17-.03,.24-.04,.07-.13,.11-.21,.11h-3.49Zm-2.21-6.23c-.18-.5-.35-.98-.52-1.45-.21-.56-.4-1.09-.58-1.56-.19-.47-.36-.89-.5-1.26-.03-.07-.06-.15-.09-.22-.03,.07-.06,.15-.09,.23-.14,.36-.31,.78-.48,1.25-.17,.44-.35,.93-.61,1.56-.17,.46-.35,.94-.54,1.44h3.4Z"></path><path class="b" d="M30.24,41.84c-.14,0-.26-.11-.26-.26v-11.43h-4.1c-.14,0-.26-.11-.26-.26v-2.77c0-.14,.12-.25,.26-.25h11.97c.14,0,.26,.11,.26,.25v2.77c0,.15-.12,.26-.26,.26h-4.1v11.43c0,.15-.11,.26-.26,.26h-3.25Z"></path><path class="b" d="M52.44,41.84c-.14,0-.25-.11-.25-.25-.04-1.4-.1-2.94-.16-4.59-.06-1.3-.13-2.63-.24-3.95-.13,.31-.27,.64-.42,.98-.31,.69-.61,1.41-.91,2.13-.3,.71-.6,1.39-.87,2.03-.28,.65-.51,1.2-.71,1.65-.04,.1-.13,.16-.24,.16h-2.27c-.1,0-.2-.06-.24-.16-.19-.45-.43-1.01-.71-1.65-.3-.69-.59-1.37-.87-2.03-.3-.7-.6-1.41-.91-2.13-.15-.34-.29-.67-.42-.98-.1,1.33-.18,2.65-.23,3.95-.07,1.62-.12,3.16-.17,4.59,0,.14-.12,.25-.26,.25h-3.17c-.07,0-.14-.03-.19-.08-.05-.05-.07-.11-.06-.19,.05-1.15,.11-2.38,.19-3.66,.08-1.28,.16-2.58,.25-3.88,.09-1.28,.2-2.53,.31-3.72,.12-1.18,.25-2.27,.38-3.23,.02-.13,.13-.22,.26-.22h3.11c.09,0,.18,.05,.22,.14,.25,.45,.55,1.03,.88,1.7,.33,.68,.68,1.42,1.03,2.2,.35,.79,.71,1.59,1.06,2.42l.75,1.75c.24-.56,.49-1.14,.75-1.75,.34-.82,.7-1.63,1.06-2.42,.36-.78,.7-1.52,1.03-2.2,.33-.67,.63-1.25,.88-1.7,.05-.09,.13-.14,.23-.14h2.96c.13,0,.24,.1,.25,.22,.15,.95,.28,2.05,.39,3.23,.12,1.18,.22,2.44,.32,3.72,.09,1.29,.17,2.59,.25,3.88,.08,1.29,.14,2.52,.2,3.66,0,.07-.02,.14-.08,.19-.04,.06-.11,.08-.18,.08h-3.17Z"></path><path class="b" d="M34.35,68.71c-4.63,0-9.14-.9-13.37-2.7-4.1-1.73-7.77-4.21-10.92-7.36-3.16-3.15-5.64-6.83-7.36-10.92-1.8-4.24-2.7-8.73-2.7-13.37s.9-9.14,2.7-13.37c1.72-4.1,4.2-7.77,7.36-10.93,3.15-3.15,6.83-5.63,10.92-7.36C25.21,.91,29.72,0,34.35,0s9.14,.91,13.38,2.7c4.09,1.73,7.76,4.21,10.92,7.36,3.16,3.15,5.63,6.83,7.36,10.93,1.79,4.23,2.7,8.72,2.7,13.37s-.91,9.13-2.7,13.37c-1.73,4.09-4.2,7.77-7.36,10.92-3.16,3.16-6.83,5.63-10.92,7.36-4.24,1.79-8.74,2.7-13.38,2.7m0-62.71c-15.64,0-28.36,12.72-28.36,28.36s12.72,28.36,28.36,28.36,28.36-12.72,28.36-28.36S49.99,6,34.35,6"></path><path class="b" d="M88.67,31.52c.16,.43,0,.65-.45,.65h-1.02c-.8,0-1.06-.12-1.21-.59l-.9-2.53h-5.41l-.92,2.53c-.16,.47-.41,.59-1.22,.59h-.9c-.45,0-.61-.21-.45-.65l4.9-12.73c.18-.45,.35-.55,.82-.55h1.04c.47,0,.67,.12,.82,.53l4.9,12.75Zm-5.76-8.62c-.23-.7-.39-1.6-.45-2.06l-.02-.33h-.14c0,.74-.14,1.53-.43,2.37l-1.51,4.15h4.03l-1.49-4.13Z"></path><path class="b" d="M89.1,25.82c0-2.66,1.37-4.1,4.09-4.1,.61,0,1.37,.08,2.33,.26v-3.7c0-.45,.14-.61,.59-.61h1.08c.45,0,.61,.16,.61,.61v12.48c0,.63-.16,.82-.78,1.08-1.12,.41-2.33,.63-3.66,.63-2.84,0-4.25-1.31-4.25-3.95v-2.68Zm6.43-1.77c-.78-.17-1.41-.25-1.9-.25-1.51,0-2.25,.68-2.25,2.07v2.55c0,1.31,.72,1.96,2.19,1.96,.69,0,1.29-.08,1.8-.22,.1-.04,.16-.12,.16-.22v-5.9Z"></path><path class="b" d="M110,21.72c2.57,0,3.84,1.3,3.84,3.9v5.93c0,.45-.14,.61-.59,.61h-1.08c-.45,0-.61-.15-.61-.61v-5.86c0-1.27-.63-1.9-1.9-1.9-.59,0-1.21,.12-1.9,.35,.14,.37,.22,.86,.22,1.47v5.93c0,.45-.16,.61-.61,.61h-1.06c-.45,0-.61-.15-.61-.61v-5.86c0-1.27-.65-1.9-1.92-1.9-.57,0-1.08,.08-1.57,.23-.1,.04-.16,.12-.16,.24v7.29c0,.45-.14,.61-.59,.61h-1.08c-.45,0-.61-.15-.61-.61v-8.05c0-.63,.16-.86,.76-1.12,1.08-.45,2.27-.67,3.57-.67,1.04,0,1.84,.22,2.43,.65,1.08-.43,2.21-.65,3.45-.65"></path><path class="b" d="M117.03,18.22c.92,0,1.2,.29,1.2,1.18v.18c0,.92-.27,1.19-1.2,1.19h-.14c-.88,0-1.2-.27-1.2-1.19v-.18c0-.88,.27-1.18,1.2-1.18h.14Zm.47,3.8c.45,0,.61,.14,.61,.59v8.95c0,.45-.16,.61-.61,.61h-1.08c-.45,0-.59-.16-.59-.61v-8.95c0-.45,.14-.59,.59-.59h1.08Z"></path><path class="b" d="M124.75,21.72c2.74,0,4.08,1.41,4.08,3.94v5.89c0,.45-.16,.61-.61,.61h-1.08c-.45,0-.59-.15-.59-.61v-5.84c0-1.27-.71-1.92-2.14-1.92-.63,0-1.25,.08-1.88,.26-.1,.04-.14,.1-.14,.19v7.31c0,.45-.14,.61-.59,.61h-1.08c-.45,0-.61-.15-.61-.61v-8.05c0-.63,.14-.86,.76-1.12,1.12-.45,2.39-.67,3.86-.67"></path><path class="b" d="M132,18.22c.92,0,1.2,.29,1.2,1.18v.18c0,.92-.27,1.19-1.2,1.19h-.14c-.88,0-1.2-.27-1.2-1.19v-.18c0-.88,.27-1.18,1.2-1.18h.14Zm.47,3.8c.45,0,.61,.14,.61,.59v8.95c0,.45-.16,.61-.61,.61h-1.08c-.45,0-.59-.16-.59-.61v-8.95c0-.45,.14-.59,.59-.59h1.08Z"></path><path class="b" d="M139.01,21.72c2.1,0,3.51,.71,4.19,2.1,.22,.39,.1,.69-.31,.88l-.88,.35c-.45,.17-.57,.14-.82-.28-.37-.68-1.08-1.02-2.12-1.02-1.23,0-1.84,.35-1.84,1.06,0,.86,.59,1.06,2.29,1.22,2.66,.25,4,.96,4,3.15,0,1.98-1.51,3.27-4.23,3.27-2.29,0-3.76-.78-4.37-2.37-.16-.41-.02-.68,.39-.82l.88-.27c.39-.16,.63-.08,.8,.37,.3,.73,1.04,1.08,2.21,1.08,1.39,0,2.08-.39,2.08-1.16,0-.86-.61-1.08-2.35-1.25-.92-.1-1.45-.17-2.21-.47-.37-.14-.69-.32-.92-.53-.47-.41-.82-1.15-.82-2.15,0-1.94,1.39-3.15,4.03-3.15"></path><path class="b" d="M147.46,19.67c.45,0,.61,.14,.61,.59v1.76h2.23c.45,0,.61,.14,.61,.59v.9c0,.45-.16,.61-.61,.61h-2.23v3.94c0,.92,.16,1.53,.47,1.82,.29,.29,.88,.43,1.74,.43,.47,0,.63,.14,.63,.61v.9c0,.47-.16,.61-.63,.63-1.65,.06-2.8-.23-3.47-.86-.69-.63-1.02-1.78-1.02-3.45v-4.02h-1.35c-.45,0-.59-.16-.59-.61v-.9c0-.45,.14-.59,.59-.59h1.35v-1.76c0-.45,.16-.59,.61-.59h1.06Z"></path><path class="b" d="M157.23,21.72c.45,0,.61,.14,.61,.61v.86c0,.45-.16,.61-.61,.61h-.7c-.72,0-1.35,.08-1.86,.23-.14,.02-.2,.1-.2,.24v7.29c0,.45-.14,.61-.59,.61h-1.08c-.45,0-.61-.15-.61-.61v-8.13c0-.63,.14-.86,.76-1.12,.96-.35,2.18-.55,3.64-.59h.63Z"></path><path class="b" d="M162.68,21.72c2.8,0,4.19,1.35,4.19,4.03v5.07c0,.68-.16,.88-.7,1.12-.78,.33-1.96,.51-3.53,.51-1.66,0-2.8-.26-3.43-.78-.63-.51-.94-1.31-.94-2.39,0-2.33,1.25-3.15,4.45-3.15,.14,0,.76,.04,1.88,.1v-.55c0-1.27-.55-1.94-1.96-1.94-.96,0-1.65,.31-2.06,.94-.29,.41-.39,.45-.84,.29l-.78-.33c-.43-.19-.55-.49-.33-.88,.7-1.35,2.06-2.04,4.05-2.04m1.92,6.37c-1.37-.06-2.08-.1-2.13-.1-1.41,0-1.88,.41-1.88,1.27s.41,1.31,1.84,1.31c.84,0,1.49-.06,1.96-.16,.14-.06,.22-.14,.22-.27v-2.06Z"></path><path class="b" d="M168.44,25.74c0-2.56,1.51-4.02,4.51-4.02,2.21,0,3.66,1.02,4.19,2.57,.16,.49,.04,.7-.43,.88l-.86,.27c-.47,.18-.69,.06-.86-.41-.33-.88-1.06-1.31-2.13-1.31-1.43,0-2.13,.65-2.13,1.92v2.9c0,1.23,.75,1.92,2.13,1.92,1.08,0,1.8-.45,2.13-1.35,.18-.47,.39-.55,.86-.39l.88,.25c.45,.17,.59,.47,.41,.88-.69,1.74-2.14,2.6-4.37,2.6-2.9,0-4.33-1.45-4.33-4.01v-2.71Z"></path><path class="b" d="M179.89,18.22c.92,0,1.2,.29,1.2,1.18v.18c0,.92-.27,1.19-1.2,1.19h-.14c-.88,0-1.2-.27-1.2-1.19v-.18c0-.88,.27-1.18,1.2-1.18h.14Zm.47,3.8c.45,0,.61,.14,.61,.59v8.95c0,.45-.16,.61-.61,.61h-1.08c-.45,0-.59-.16-.59-.61v-8.95c0-.45,.14-.59,.59-.59h1.08Z"></path><path class="b" d="M182.7,25.64c0-2.45,1.63-3.92,4.51-3.92s4.53,1.47,4.53,3.92v2.9c0,2.45-1.63,3.92-4.53,3.92s-4.51-1.47-4.51-3.92v-2.9Zm5.17-7.74c.49-.29,.86-.27,1.12,.02l.49,.63c.3,.33,.31,.55-.08,.67l-3.41,1.43c-.37,.16-.63,.16-.76-.02l-.27-.37c-.24-.29-.22-.49,.04-.63l2.88-1.73Zm1.59,7.74c0-1.2-.82-1.86-2.25-1.86s-2.23,.67-2.23,1.86v2.9c0,1.17,.8,1.86,2.23,1.86s2.25-.69,2.25-1.86v-2.9Z"></path><path class="b" d="M198.05,21.72c2.74,0,4.08,1.41,4.08,3.94v5.89c0,.45-.16,.61-.61,.61h-1.08c-.45,0-.59-.15-.59-.61v-5.84c0-1.27-.71-1.92-2.14-1.92-.63,0-1.25,.08-1.88,.26-.1,.04-.14,.1-.14,.19v7.31c0,.45-.14,.61-.59,.61h-1.08c-.45,0-.61-.15-.61-.61v-8.05c0-.63,.14-.86,.76-1.12,1.12-.45,2.39-.67,3.86-.67"></path><path class="b" d="M85.91,36.75c.49,0,.67,.18,.67,.67v.96c0,.49-.18,.67-.67,.67h-3.37v10.95c0,.49-.18,.67-.67,.67h-1.14c-.49,0-.67-.17-.67-.67v-10.95h-3.37c-.49,0-.67-.17-.67-.67v-.96c0-.49,.18-.67,.67-.67h9.21Z"></path><path class="b" d="M90.94,40.21c.45,0,.61,.14,.61,.61v.86c0,.45-.16,.61-.61,.61h-.7c-.72,0-1.35,.08-1.86,.24-.14,.02-.2,.1-.2,.24v7.29c0,.45-.14,.61-.59,.61h-1.08c-.45,0-.61-.15-.61-.61v-8.13c0-.63,.14-.86,.76-1.12,.96-.35,2.18-.55,3.64-.59h.63Z"></path><path class="b" d="M93.84,36.71c.92,0,1.2,.3,1.2,1.18v.18c0,.92-.27,1.2-1.2,1.2h-.14c-.88,0-1.2-.27-1.2-1.2v-.18c0-.88,.27-1.18,1.2-1.18h.14Zm.47,3.8c.45,0,.61,.14,.61,.59v8.95c0,.45-.16,.61-.61,.61h-1.08c-.45,0-.59-.16-.59-.61v-8.95c0-.45,.14-.59,.59-.59h1.08Z"></path><path class="b" d="M98.62,36.16c.45,0,.59,.15,.59,.61v3.78c.96-.22,1.74-.33,2.35-.33,2.72,0,4.08,1.31,4.08,3.94v2.64c0,2.76-1.47,4.15-4.43,4.15-1.39,0-2.57-.22-3.55-.63-.63-.29-.72-.45-.72-1.08v-12.48c0-.45,.16-.61,.61-.61h1.08Zm4.74,8.05c0-1.23-.75-1.92-2.14-1.92-.65,0-1.31,.12-2.02,.35v5.78c0,.1,.06,.18,.16,.21,.45,.16,1,.24,1.68,.24,1.55,0,2.31-.7,2.31-2.14v-2.53Z"></path><path class="b" d="M115.39,40.51c.45,0,.61,.14,.61,.59v8.07c0,.63-.14,.84-.76,1.09-1.15,.45-2.43,.68-3.84,.68-2.74,0-4.09-1.41-4.09-3.94v-5.91c0-.45,.16-.59,.61-.59h1.08c.45,0,.59,.14,.59,.59v5.84c0,1.29,.7,1.94,2.13,1.94,.69,0,1.27-.08,1.8-.24,.14-.06,.22-.15,.22-.33v-7.21c0-.45,.16-.59,.61-.59h1.06Z"></path><path class="b" d="M120.68,38.16c.45,0,.61,.14,.61,.59v1.76h2.23c.45,0,.61,.14,.61,.59v.9c0,.45-.16,.61-.61,.61h-2.23v3.94c0,.92,.16,1.53,.47,1.82,.29,.29,.88,.43,1.74,.43,.47,0,.63,.14,.63,.61v.9c0,.47-.16,.61-.63,.63-1.65,.06-2.8-.23-3.47-.86-.69-.63-1.02-1.78-1.02-3.45v-4.02h-1.35c-.45,0-.59-.16-.59-.61v-.9c0-.45,.14-.59,.59-.59h1.35v-1.76c0-.45,.16-.59,.61-.59h1.06Z"></path><path class="b" d="M129.33,40.22c2.8,0,4.19,1.35,4.19,4.03v5.07c0,.68-.16,.88-.7,1.11-.78,.33-1.96,.51-3.53,.51-1.66,0-2.8-.26-3.43-.78-.63-.51-.94-1.31-.94-2.39,0-2.33,1.25-3.15,4.45-3.15,.14,0,.76,.04,1.88,.1v-.55c0-1.27-.55-1.94-1.96-1.94-.96,0-1.65,.31-2.06,.94-.29,.41-.39,.45-.84,.29l-.78-.33c-.43-.19-.55-.49-.33-.88,.7-1.35,2.06-2.04,4.05-2.04m1.92,6.36c-1.37-.06-2.08-.1-2.13-.1-1.41,0-1.88,.41-1.88,1.27s.41,1.31,1.84,1.31c.84,0,1.49-.06,1.96-.16,.14-.06,.22-.14,.22-.27v-2.06Z"></path><path class="b" d="M140.42,40.21c.45,0,.61,.14,.61,.61v.86c0,.45-.16,.61-.61,.61h-.7c-.72,0-1.35,.08-1.86,.24-.14,.02-.2,.1-.2,.24v7.29c0,.45-.14,.61-.59,.61h-1.08c-.45,0-.61-.15-.61-.61v-8.13c0-.63,.14-.86,.76-1.12,.96-.35,2.18-.55,3.64-.59h.63Z"></path><path class="b" d="M143.32,36.71c.92,0,1.2,.3,1.2,1.18v.18c0,.92-.27,1.2-1.2,1.2h-.14c-.88,0-1.2-.27-1.2-1.2v-.18c0-.88,.27-1.18,1.2-1.18h.14Zm.47,3.8c.45,0,.61,.14,.61,.59v8.95c0,.45-.16,.61-.61,.61h-1.08c-.45,0-.59-.16-.59-.61v-8.95c0-.45,.14-.59,.59-.59h1.08Z"></path><path class="b" d="M150.33,40.22c2.8,0,4.19,1.35,4.19,4.03v5.07c0,.68-.16,.88-.71,1.11-.78,.33-1.96,.51-3.53,.51-1.66,0-2.8-.26-3.43-.78-.63-.51-.94-1.31-.94-2.39,0-2.33,1.25-3.15,4.45-3.15,.14,0,.76,.04,1.88,.1v-.55c0-1.27-.55-1.94-1.96-1.94-.96,0-1.65,.31-2.06,.94-.29,.41-.39,.45-.84,.29l-.78-.33c-.43-.19-.55-.49-.33-.88,.7-1.35,2.06-2.04,4.05-2.04m1.92,6.36c-1.37-.06-2.08-.1-2.14-.1-1.41,0-1.88,.41-1.88,1.27s.41,1.31,1.84,1.31c.84,0,1.49-.06,1.96-.16,.14-.06,.22-.14,.22-.27v-2.06Z"></path><path class="b" d="M173.23,36.75c.49,0,.67,.18,.67,.67v12.58c0,.49-.18,.67-.67,.67h-1c-.49,0-.67-.17-.67-.67v-5.97c0-1.18,.16-2.47,.47-3.9h-.14c-.37,1.14-.92,2.33-1.61,3.58l-1.92,3.39c-.2,.31-.45,.47-.76,.47h-.63c-.41,0-.55-.08-.76-.47l-1.96-3.41c-.61-1.02-1.1-2.21-1.51-3.56h-.14c.27,1.33,.41,2.64,.41,3.92v5.96c0,.49-.18,.67-.67,.67h-.94c-.49,0-.69-.17-.69-.67v-12.58c0-.49,.2-.67,.69-.67h.86c.55,0,.73,.1,.94,.51l4.07,7.29,4.08-7.27c.24-.45,.37-.53,.9-.53h.96Z"></path><path class="b" d="M175.74,44.45c0-2.74,1.59-4.23,4.55-4.23s4.53,1.68,4.53,4.05v1.2c0,.57-.3,.84-.88,.84h-5.92v.73c0,1.27,.8,1.96,2.23,1.96,1.1,0,1.86-.35,2.31-1.04,.31-.45,.53-.49,1-.24l.69,.37c.45,.22,.53,.53,.23,.98-.76,1.25-2.18,1.88-4.23,1.88-3.06,0-4.51-1.63-4.51-4.19v-2.31Zm6.8-.31c0-1.27-.76-2-2.25-2s-2.27,.72-2.27,2v.43h4.53v-.43Z"></path><path class="b" d="M191,40.21c2.74,0,4.08,1.41,4.08,3.94v5.89c0,.45-.16,.61-.61,.61h-1.08c-.45,0-.59-.15-.59-.61v-5.84c0-1.27-.71-1.92-2.14-1.92-.63,0-1.25,.08-1.88,.26-.1,.04-.14,.1-.14,.19v7.31c0,.45-.14,.61-.59,.61h-1.08c-.45,0-.61-.15-.61-.61v-8.05c0-.63,.14-.86,.76-1.12,1.12-.45,2.39-.67,3.86-.67"></path><path class="b" d="M196.74,44.31c0-2.66,1.37-4.09,4.1-4.09,.61,0,1.37,.08,2.33,.26v-3.7c0-.45,.14-.61,.59-.61h1.08c.45,0,.61,.16,.61,.61v12.48c0,.63-.16,.82-.78,1.08-1.12,.41-2.33,.63-3.66,.63-2.84,0-4.25-1.31-4.25-3.95v-2.68Zm6.43-1.76c-.78-.18-1.41-.25-1.9-.25-1.51,0-2.25,.68-2.25,2.07v2.55c0,1.31,.72,1.96,2.19,1.96,.69,0,1.29-.08,1.8-.22,.1-.04,.16-.12,.16-.22v-5.89Z"></path><path class="b" d="M207.14,44.13c0-2.45,1.63-3.92,4.51-3.92s4.53,1.47,4.53,3.92v2.9c0,2.45-1.63,3.92-4.53,3.92s-4.51-1.47-4.51-3.92v-2.9Zm6.76,0c0-1.2-.82-1.86-2.25-1.86s-2.23,.67-2.23,1.86v2.9c0,1.18,.8,1.86,2.23,1.86s2.25-.68,2.25-1.86v-2.9Z"></path><path class="b" d="M224.81,48.6c.45,0,.59,.16,.59,.61v.84c0,.45-.14,.61-.59,.61h-6.86c-.45,0-.61-.16-.61-.61v-.84c0-.25,.08-.45,.22-.61l4.8-6.03h-4.31c-.45,0-.61-.16-.61-.61v-.86c0-.45,.16-.59,.61-.59h6.66c.45,0,.59,.14,.59,.59v.86c0,.25-.08,.47-.22,.64l-4.84,5.99h4.56Z"></path><path class="b" d="M230.81,40.22c2.8,0,4.19,1.35,4.19,4.03v5.07c0,.68-.16,.88-.71,1.11-.78,.33-1.96,.51-3.53,.51-1.66,0-2.8-.26-3.43-.78-.63-.51-.94-1.31-.94-2.39,0-2.33,1.25-3.15,4.45-3.15,.14,0,.76,.04,1.88,.1v-.55c0-1.27-.55-1.94-1.96-1.94-.96,0-1.65,.31-2.06,.94-.29,.41-.39,.45-.84,.29l-.78-.33c-.43-.19-.55-.49-.33-.88,.7-1.35,2.06-2.04,4.05-2.04m1.92,6.36c-1.37-.06-2.08-.1-2.14-.1-1.41,0-1.88,.41-1.88,1.27s.41,1.31,1.84,1.31c.84,0,1.49-.06,1.96-.16,.14-.06,.22-.14,.22-.27v-2.06Z"></path></svg>