<?xml version="1.0" encoding="utf-8"?>
<svg viewBox="0 0 235 68.71" xmlns="http://www.w3.org/2000/svg"><defs><style>.b{fill:#fff;}</style></defs><path class="b" d="M23.47,41.84c-.11,0-.21-.07-.24-.17-.16-.51-.33-1.03-.52-1.54l-.49-1.41h-5.28l-.49,1.41c-.18,.52-.35,1.04-.51,1.54-.04,.1-.13,.17-.24,.17h-3.39c-.08,0-.16-.04-.21-.11-.05-.07-.06-.16-.03-.24,.54-1.56,1.06-3.01,1.55-4.32,.49-1.32,.97-2.58,1.43-3.74,.47-1.17,.93-2.29,1.39-3.34,.45-1.05,.93-2.08,1.41-3.09,.04-.09,.14-.14,.23-.14h3.09c.09,0,.19,.05,.23,.14,.47,.99,.95,2.03,1.41,3.08,.47,1.05,.94,2.17,1.4,3.33,.46,1.16,.95,2.42,1.44,3.74,.49,1.31,1,2.76,1.55,4.32,.03,.08,.02,.17-.03,.24-.04,.07-.13,.11-.21,.11h-3.49Zm-2.21-6.23c-.18-.5-.35-.98-.52-1.45-.21-.56-.4-1.09-.58-1.56-.19-.47-.36-.89-.5-1.26-.03-.07-.06-.15-.09-.22-.03,.07-.06,.15-.09,.23-.14,.36-.31,.78-.48,1.25-.17,.44-.35,.93-.61,1.56-.17,.46-.35,.94-.54,1.44h3.4Z"/><path class="b" d="M30.24,41.84c-.14,0-.26-.11-.26-.26v-11.43h-4.1c-.14,0-.26-.11-.26-.26v-2.77c0-.14,.12-.25,.26-.25h11.97c.14,0,.26,.11,.26,.25v2.77c0,.15-.12,.26-.26,.26h-4.1v11.43c0,.15-.11,.26-.26,.26h-3.25Z"/><path class="b" d="M52.44,41.84c-.14,0-.25-.11-.25-.25-.04-1.4-.1-2.94-.16-4.59-.06-1.3-.13-2.63-.24-3.95-.13,.31-.27,.64-.42,.98-.31,.69-.61,1.41-.91,2.13-.3,.71-.6,1.39-.87,2.03-.28,.65-.51,1.2-.71,1.65-.04,.1-.13,.16-.24,.16h-2.27c-.1,0-.2-.06-.24-.16-.19-.45-.43-1.01-.71-1.65-.3-.69-.59-1.37-.87-2.03-.3-.7-.6-1.41-.91-2.13-.15-.34-.29-.67-.42-.98-.1,1.33-.18,2.65-.23,3.95-.07,1.62-.12,3.16-.17,4.59,0,.14-.12,.25-.26,.25h-3.17c-.07,0-.14-.03-.19-.08-.05-.05-.07-.11-.06-.19,.05-1.15,.11-2.38,.19-3.66,.08-1.28,.16-2.58,.25-3.88,.09-1.28,.2-2.53,.31-3.72,.12-1.18,.25-2.27,.38-3.23,.02-.13,.13-.22,.26-.22h3.11c.09,0,.18,.05,.22,.14,.25,.45,.55,1.03,.88,1.7,.33,.68,.68,1.42,1.03,2.2,.35,.79,.71,1.59,1.06,2.42l.75,1.75c.24-.56,.49-1.14,.75-1.75,.34-.82,.7-1.63,1.06-2.42,.36-.78,.7-1.52,1.03-2.2,.33-.67,.63-1.25,.88-1.7,.05-.09,.13-.14,.23-.14h2.96c.13,0,.24,.1,.25,.22,.15,.95,.28,2.05,.39,3.23,.12,1.18,.22,2.44,.32,3.72,.09,1.29,.17,2.59,.25,3.88,.08,1.29,.14,2.52,.2,3.66,0,.07-.02,.14-.08,.19-.04,.06-.11,.08-.18,.08h-3.17Z"/><path class="b" d="M34.35,68.71c-4.63,0-9.14-.9-13.37-2.7-4.1-1.73-7.77-4.21-10.92-7.36-3.16-3.15-5.64-6.83-7.36-10.92-1.8-4.24-2.7-8.73-2.7-13.37s.9-9.14,2.7-13.37c1.72-4.1,4.2-7.77,7.36-10.93,3.15-3.15,6.83-5.63,10.92-7.36C25.21,.91,29.72,0,34.35,0s9.14,.91,13.38,2.7c4.09,1.73,7.76,4.21,10.92,7.36,3.16,3.15,5.63,6.83,7.36,10.93,1.79,4.23,2.7,8.72,2.7,13.37s-.91,9.13-2.7,13.37c-1.73,4.09-4.2,7.77-7.36,10.92-3.16,3.16-6.83,5.63-10.92,7.36-4.24,1.79-8.74,2.7-13.38,2.7m0-62.71c-15.64,0-28.36,12.72-28.36,28.36s12.72,28.36,28.36,28.36,28.36-12.72,28.36-28.36S49.99,6,34.35,6"/></svg>