<svg xmlns="http://www.w3.org/2000/svg" id="a" viewBox="0 0 121.56 35.54"><defs><style>.b{fill:#343738;}.c{fill:#df1e26;}</style></defs><path class="b" d="M12.14,21.65c-.06,0-.11-.04-.13-.09-.08-.26-.17-.53-.27-.8l-.25-.73h-2.73l-.25,.73c-.09,.27-.18,.54-.26,.8-.02,.05-.07,.09-.13,.09h-1.75s-.08-.02-.11-.06c-.02-.03-.03-.08-.02-.12,.28-.81,.55-1.56,.8-2.24,.25-.68,.5-1.33,.74-1.93,.24-.6,.48-1.18,.72-1.73,.23-.54,.48-1.08,.73-1.6,.02-.05,.07-.07,.12-.07h1.6s.1,.03,.12,.07c.24,.51,.49,1.05,.73,1.6,.24,.54,.48,1.12,.73,1.72,.24,.6,.49,1.26,.74,1.94,.25,.68,.52,1.43,.8,2.24,.02,.04,0,.09-.02,.12-.02,.03-.07,.06-.11,.06h-1.81Zm-1.14-3.23c-.09-.26-.18-.51-.27-.75-.11-.29-.21-.56-.3-.81-.1-.24-.18-.46-.26-.65-.01-.04-.03-.08-.04-.11-.02,.04-.03,.08-.05,.12-.07,.19-.16,.4-.25,.65-.09,.23-.18,.48-.31,.81-.09,.24-.18,.49-.28,.75h1.76Z"></path><path class="b" d="M15.65,21.64c-.07,0-.13-.06-.13-.13v-5.91h-2.12c-.07,0-.14-.06-.14-.13v-1.43c0-.07,.06-.13,.14-.13h6.19c.07,0,.13,.06,.13,.13v1.43c0,.08-.06,.13-.13,.13h-2.12v5.91c0,.08-.06,.13-.13,.13h-1.68Z"></path><path class="b" d="M27.13,21.64c-.07,0-.13-.06-.13-.13-.02-.72-.05-1.52-.08-2.38-.03-.67-.07-1.36-.12-2.04-.07,.16-.14,.33-.22,.51-.16,.36-.32,.73-.47,1.1-.16,.37-.31,.72-.45,1.05-.15,.33-.27,.62-.37,.86-.02,.05-.07,.08-.12,.08h-1.17c-.05,0-.1-.03-.12-.08-.1-.23-.22-.52-.37-.86-.15-.36-.3-.71-.45-1.05-.15-.36-.31-.73-.47-1.1-.08-.18-.15-.35-.22-.51-.05,.69-.09,1.37-.12,2.04-.04,.84-.06,1.63-.09,2.38,0,.07-.06,.13-.14,.13h-1.64s-.07-.01-.1-.04c-.02-.03-.04-.06-.03-.1,.03-.59,.06-1.23,.1-1.89,.04-.66,.08-1.33,.13-2,.05-.66,.1-1.31,.16-1.92,.06-.61,.13-1.17,.2-1.67,.01-.06,.07-.11,.13-.11h1.61s.09,.02,.12,.07c.13,.23,.28,.53,.45,.88,.17,.35,.35,.73,.53,1.14,.18,.41,.37,.82,.55,1.25l.39,.91c.12-.29,.25-.59,.39-.91,.18-.42,.36-.84,.55-1.25,.18-.4,.36-.79,.53-1.14,.17-.35,.32-.65,.45-.88,.02-.05,.07-.07,.12-.07h1.53c.07,0,.12,.05,.13,.11,.08,.49,.14,1.06,.2,1.67,.06,.61,.11,1.26,.16,1.92,.05,.66,.09,1.34,.13,2,.04,.67,.07,1.3,.1,1.89,0,.04-.01,.07-.04,.1-.02,.03-.06,.04-.09,.04h-1.64Z"></path><path class="c" d="M17.77,35.54c-2.4,0-4.73-.47-6.92-1.4-2.12-.9-4.02-2.18-5.65-3.81-1.63-1.63-2.92-3.53-3.81-5.65-.93-2.19-1.4-4.52-1.4-6.92s.47-4.73,1.4-6.92c.89-2.12,2.17-4.02,3.81-5.65,1.63-1.63,3.53-2.91,5.65-3.81,2.19-.93,4.52-1.4,6.92-1.4s4.73,.47,6.92,1.4c2.11,.9,4.01,2.18,5.65,3.81,1.63,1.63,2.91,3.53,3.81,5.65,.93,2.19,1.4,4.51,1.4,6.92s-.47,4.72-1.4,6.92c-.9,2.12-2.17,4.02-3.81,5.65-1.63,1.63-3.53,2.91-5.65,3.81-2.19,.93-4.52,1.4-6.92,1.4m0-32.44C9.68,3.1,3.1,9.68,3.1,17.77s6.58,14.67,14.67,14.67,14.67-6.58,14.67-14.67S25.86,3.1,17.77,3.1"></path><path class="b" d="M45.87,16.3c.08,.22,0,.34-.23,.34h-.53c-.42,0-.55-.06-.63-.3l-.47-1.31h-2.8l-.48,1.31c-.08,.24-.21,.3-.63,.3h-.47c-.23,0-.31-.11-.23-.34l2.53-6.59c.09-.23,.18-.28,.42-.28h.54c.24,0,.34,.06,.42,.27l2.53,6.6Zm-2.98-4.46c-.12-.36-.2-.83-.23-1.06v-.17h-.08c0,.39-.07,.79-.22,1.23l-.78,2.15h2.09l-.77-2.14Z"></path><path class="b" d="M46.09,13.35c0-1.38,.71-2.12,2.12-2.12,.31,0,.71,.04,1.21,.13v-1.92c0-.23,.07-.31,.3-.31h.56c.23,0,.31,.08,.31,.31v6.45c0,.32-.08,.43-.4,.56-.58,.21-1.21,.32-1.89,.32-1.47,0-2.2-.68-2.2-2.05v-1.39Zm3.32-.91c-.41-.09-.73-.13-.98-.13-.78,0-1.17,.35-1.17,1.07v1.32c0,.68,.38,1.01,1.14,1.01,.35,0,.67-.04,.93-.11,.05-.02,.08-.06,.08-.11v-3.05Z"></path><path class="b" d="M56.9,11.24c1.33,0,1.99,.67,1.99,2.02v3.07c0,.23-.07,.31-.3,.31h-.56c-.23,0-.31-.08-.31-.31v-3.03c0-.66-.32-.98-.98-.98-.3,0-.63,.06-.98,.18,.07,.19,.11,.45,.11,.76v3.07c0,.23-.08,.31-.31,.31h-.55c-.23,0-.31-.08-.31-.31v-3.03c0-.66-.33-.98-.99-.98-.29,0-.56,.04-.81,.12-.05,.02-.08,.06-.08,.12v3.77c0,.23-.07,.31-.3,.31h-.56c-.23,0-.31-.08-.31-.31v-4.16c0-.32,.08-.45,.4-.58,.56-.23,1.18-.35,1.84-.35,.54,0,.95,.11,1.26,.33,.56-.22,1.15-.33,1.78-.33"></path><path class="b" d="M60.54,9.42c.48,0,.62,.15,.62,.61v.09c0,.48-.14,.62-.62,.62h-.07c-.46,0-.62-.14-.62-.62v-.09c0-.46,.14-.61,.62-.61h.07Zm.24,1.97c.23,0,.31,.07,.31,.3v4.63c0,.23-.08,.31-.31,.31h-.56c-.23,0-.3-.08-.3-.31v-4.63c0-.23,.07-.3,.3-.3h.56Z"></path><path class="b" d="M64.53,11.24c1.42,0,2.11,.73,2.11,2.04v3.05c0,.23-.08,.31-.31,.31h-.56c-.23,0-.3-.08-.3-.31v-3.02c0-.66-.36-.99-1.1-.99-.32,0-.65,.04-.97,.13-.05,.02-.07,.05-.07,.1v3.78c0,.23-.07,.31-.3,.31h-.56c-.23,0-.32-.08-.32-.31v-4.16c0-.32,.07-.45,.4-.58,.58-.23,1.24-.35,2-.35"></path><path class="b" d="M68.28,9.42c.48,0,.62,.15,.62,.61v.09c0,.48-.14,.62-.62,.62h-.07c-.46,0-.62-.14-.62-.62v-.09c0-.46,.14-.61,.62-.61h.07Zm.24,1.97c.23,0,.31,.07,.31,.3v4.63c0,.23-.08,.31-.31,.31h-.56c-.23,0-.3-.08-.3-.31v-4.63c0-.23,.07-.3,.3-.3h.56Z"></path><path class="b" d="M71.91,11.24c1.08,0,1.81,.37,2.17,1.08,.11,.2,.05,.35-.16,.46l-.46,.18c-.23,.09-.29,.07-.42-.14-.19-.35-.56-.53-1.09-.53-.64,0-.95,.18-.95,.55,0,.45,.3,.55,1.19,.63,1.38,.13,2.07,.5,2.07,1.63,0,1.02-.78,1.69-2.19,1.69-1.19,0-1.95-.41-2.26-1.23-.08-.21-.01-.35,.2-.43l.46-.14c.2-.08,.32-.04,.42,.19,.15,.38,.54,.56,1.15,.56,.72,0,1.07-.2,1.07-.6,0-.45-.31-.56-1.22-.65-.48-.05-.75-.09-1.14-.24-.19-.07-.35-.16-.48-.27-.24-.21-.42-.6-.42-1.11,0-1,.72-1.63,2.09-1.63"></path><path class="b" d="M76.28,10.17c.23,0,.31,.07,.31,.3v.91h1.15c.23,0,.31,.07,.31,.3v.47c0,.23-.08,.31-.31,.31h-1.15v2.04c0,.48,.08,.79,.24,.94,.15,.15,.46,.22,.9,.22,.24,0,.32,.07,.32,.31v.47c0,.24-.08,.31-.32,.32-.85,.03-1.45-.12-1.79-.45-.36-.32-.53-.92-.53-1.78v-2.08h-.7c-.23,0-.3-.08-.3-.31v-.47c0-.23,.07-.3,.3-.3h.7v-.91c0-.23,.08-.3,.31-.3h.55Z"></path><path class="b" d="M81.33,11.24c.23,0,.31,.07,.31,.31v.45c0,.23-.08,.31-.31,.31h-.37c-.38,0-.7,.04-.96,.12-.07,0-.1,.05-.1,.12v3.77c0,.23-.07,.31-.3,.31h-.56c-.23,0-.31-.08-.31-.31v-4.21c0-.32,.07-.45,.39-.58,.5-.18,1.12-.28,1.89-.3h.32Z"></path><path class="b" d="M84.15,11.24c1.45,0,2.17,.7,2.17,2.09v2.62c0,.35-.08,.46-.36,.58-.41,.17-1.01,.26-1.82,.26-.86,0-1.45-.13-1.77-.41-.32-.26-.49-.68-.49-1.24,0-1.21,.65-1.63,2.3-1.63,.07,0,.4,.02,.97,.05v-.28c0-.66-.28-1-1.01-1-.5,0-.85,.16-1.06,.49-.15,.21-.2,.23-.44,.15l-.41-.17c-.22-.1-.28-.25-.17-.46,.36-.7,1.06-1.05,2.1-1.05m.99,3.29c-.71-.03-1.07-.05-1.1-.05-.73,0-.97,.21-.97,.66s.21,.68,.95,.68c.44,0,.77-.03,1.01-.08,.07-.03,.11-.07,.11-.14v-1.06Z"></path><path class="b" d="M87.13,13.31c0-1.33,.78-2.08,2.33-2.08,1.14,0,1.89,.53,2.17,1.33,.08,.25,.02,.37-.22,.46l-.45,.14c-.24,.09-.36,.03-.45-.21-.17-.46-.55-.68-1.1-.68-.74,0-1.11,.33-1.11,.99v1.5c0,.64,.39,.99,1.11,.99,.56,0,.93-.23,1.1-.7,.09-.24,.2-.28,.45-.2l.46,.13c.23,.09,.3,.24,.21,.46-.36,.9-1.1,1.35-2.26,1.35-1.5,0-2.24-.75-2.24-2.08v-1.4Z"></path><path class="b" d="M93.06,9.42c.48,0,.62,.15,.62,.61v.09c0,.48-.14,.62-.62,.62h-.07c-.46,0-.62-.14-.62-.62v-.09c0-.46,.14-.61,.62-.61h.07Zm.24,1.97c.23,0,.31,.07,.31,.3v4.63c0,.23-.08,.31-.31,.31h-.56c-.23,0-.3-.08-.3-.31v-4.63c0-.23,.07-.3,.3-.3h.56Z"></path><path class="b" d="M94.5,13.26c0-1.27,.84-2.03,2.33-2.03s2.34,.76,2.34,2.03v1.5c0,1.27-.84,2.03-2.34,2.03s-2.33-.76-2.33-2.03v-1.5Zm2.67-4c.25-.15,.45-.14,.58,.01l.25,.32c.15,.17,.16,.28-.04,.35l-1.76,.74c-.19,.08-.32,.08-.4-.01l-.14-.19c-.12-.15-.11-.25,.02-.32l1.49-.89Zm.82,4c0-.62-.43-.96-1.17-.96s-1.15,.34-1.15,.96v1.5c0,.61,.42,.96,1.15,.96s1.17-.35,1.17-.96v-1.5Z"></path><path class="b" d="M102.45,11.24c1.42,0,2.11,.73,2.11,2.04v3.05c0,.23-.08,.31-.31,.31h-.56c-.23,0-.3-.08-.3-.31v-3.02c0-.66-.36-.99-1.1-.99-.32,0-.65,.04-.97,.13-.05,.02-.07,.05-.07,.1v3.78c0,.23-.07,.31-.3,.31h-.56c-.23,0-.31-.08-.31-.31v-4.16c0-.32,.07-.45,.39-.58,.58-.23,1.24-.35,2-.35"></path><path class="b" d="M44.44,19.01c.25,0,.34,.09,.34,.34v.5c0,.25-.09,.34-.34,.34h-1.74v5.66c0,.25-.09,.34-.34,.34h-.59c-.25,0-.34-.09-.34-.34v-5.66h-1.74c-.25,0-.34-.09-.34-.34v-.5c0-.25,.09-.34,.34-.34h4.76Z"></path><path class="b" d="M47.04,20.8c.23,0,.31,.07,.31,.31v.45c0,.23-.08,.31-.31,.31h-.37c-.38,0-.7,.04-.96,.12-.07,0-.1,.05-.1,.12v3.77c0,.23-.07,.31-.3,.31h-.56c-.23,0-.31-.08-.31-.31v-4.21c0-.32,.07-.45,.39-.58,.5-.18,1.12-.28,1.89-.3h.32Z"></path><path class="b" d="M48.54,18.99c.48,0,.62,.15,.62,.61v.09c0,.48-.14,.62-.62,.62h-.07c-.46,0-.62-.14-.62-.62v-.09c0-.46,.14-.61,.62-.61h.07Zm.24,1.97c.23,0,.31,.07,.31,.3v4.63c0,.23-.08,.31-.31,.31h-.56c-.23,0-.3-.08-.3-.31v-4.63c0-.23,.07-.3,.3-.3h.56Z"></path><path class="b" d="M51.01,18.7c.23,0,.3,.08,.3,.31v1.96c.5-.11,.9-.17,1.22-.17,1.41,0,2.11,.68,2.11,2.04v1.37c0,1.43-.76,2.15-2.29,2.15-.72,0-1.33-.11-1.83-.32-.32-.15-.38-.23-.38-.56v-6.45c0-.23,.08-.31,.32-.31h.56Zm2.45,4.16c0-.64-.39-.99-1.1-.99-.34,0-.68,.06-1.04,.18v2.99s.03,.09,.08,.11c.23,.08,.52,.12,.87,.12,.8,0,1.2-.36,1.2-1.1v-1.31Z"></path><path class="b" d="M59.69,20.95c.23,0,.31,.07,.31,.3v4.17c0,.32-.07,.44-.4,.57-.6,.23-1.26,.35-1.99,.35-1.42,0-2.12-.73-2.12-2.04v-3.06c0-.23,.08-.3,.31-.3h.56c.23,0,.3,.07,.3,.3v3.02c0,.67,.36,1,1.1,1,.36,0,.66-.04,.93-.12,.07-.03,.11-.08,.11-.17v-3.73c0-.23,.08-.3,.31-.3h.55Z"></path><path class="b" d="M62.42,19.74c.23,0,.31,.07,.31,.3v.91h1.15c.23,0,.31,.07,.31,.3v.47c0,.23-.08,.31-.31,.31h-1.15v2.04c0,.48,.08,.79,.24,.94,.15,.15,.46,.22,.9,.22,.24,0,.32,.07,.32,.31v.47c0,.24-.08,.31-.32,.32-.85,.03-1.45-.12-1.79-.45-.36-.32-.53-.92-.53-1.78v-2.08h-.7c-.23,0-.3-.08-.3-.31v-.47c0-.23,.07-.3,.3-.3h.7v-.91c0-.23,.08-.3,.31-.3h.55Z"></path><path class="b" d="M66.9,20.8c1.45,0,2.17,.7,2.17,2.09v2.62c0,.35-.08,.46-.36,.58-.41,.17-1.01,.26-1.82,.26-.86,0-1.45-.13-1.77-.41-.32-.26-.49-.68-.49-1.24,0-1.21,.65-1.63,2.3-1.63,.07,0,.4,.02,.97,.05v-.28c0-.66-.28-1-1.01-1-.5,0-.85,.16-1.06,.49-.15,.21-.2,.23-.44,.15l-.41-.17c-.22-.1-.28-.25-.17-.46,.36-.7,1.06-1.05,2.1-1.05m.99,3.29c-.71-.03-1.07-.05-1.1-.05-.73,0-.97,.21-.97,.66s.21,.68,.95,.68c.44,0,.77-.03,1.01-.08,.07-.03,.11-.07,.11-.14v-1.06Z"></path><path class="b" d="M72.64,20.8c.23,0,.31,.07,.31,.31v.45c0,.23-.08,.31-.31,.31h-.37c-.38,0-.7,.04-.96,.12-.07,0-.1,.05-.1,.12v3.77c0,.23-.07,.31-.3,.31h-.56c-.23,0-.31-.08-.31-.31v-4.21c0-.32,.07-.45,.39-.58,.5-.18,1.12-.28,1.89-.3h.32Z"></path><path class="b" d="M74.14,18.99c.48,0,.62,.15,.62,.61v.09c0,.48-.14,.62-.62,.62h-.07c-.46,0-.62-.14-.62-.62v-.09c0-.46,.14-.61,.62-.61h.07Zm.24,1.97c.23,0,.31,.07,.31,.3v4.63c0,.23-.08,.31-.31,.31h-.56c-.23,0-.3-.08-.3-.31v-4.63c0-.23,.07-.3,.3-.3h.56Z"></path><path class="b" d="M77.76,20.8c1.45,0,2.17,.7,2.17,2.09v2.62c0,.35-.08,.46-.36,.58-.41,.17-1.01,.26-1.82,.26-.86,0-1.45-.13-1.77-.41-.33-.26-.49-.68-.49-1.24,0-1.21,.65-1.63,2.3-1.63,.07,0,.4,.02,.97,.05v-.28c0-.66-.28-1-1.01-1-.5,0-.85,.16-1.06,.49-.15,.21-.2,.23-.44,.15l-.41-.17c-.22-.1-.28-.25-.17-.46,.36-.7,1.06-1.05,2.1-1.05m.99,3.29c-.71-.03-1.07-.05-1.1-.05-.73,0-.97,.21-.97,.66s.21,.68,.95,.68c.44,0,.77-.03,1.01-.08,.07-.03,.11-.07,.11-.14v-1.06Z"></path><path class="b" d="M89.61,19.01c.25,0,.34,.09,.34,.34v6.51c0,.25-.09,.34-.34,.34h-.52c-.25,0-.34-.09-.34-.34v-3.09c0-.61,.08-1.28,.24-2.02h-.07c-.19,.59-.48,1.21-.83,1.85l-.99,1.75c-.1,.16-.23,.24-.4,.24h-.32c-.21,0-.28-.04-.39-.24l-1.01-1.76c-.31-.53-.57-1.15-.78-1.84h-.07c.14,.69,.21,1.37,.21,2.03v3.08c0,.25-.09,.34-.35,.34h-.49c-.25,0-.36-.09-.36-.34v-6.51c0-.25,.1-.34,.36-.34h.45c.28,0,.37,.05,.49,.26l2.11,3.77,2.11-3.76c.12-.23,.19-.27,.47-.27h.5Z"></path><path class="b" d="M90.91,22.99c0-1.42,.82-2.19,2.35-2.19s2.34,.87,2.34,2.1v.62c0,.29-.15,.44-.46,.44h-3.06v.38c0,.66,.42,1.01,1.15,1.01,.57,0,.96-.18,1.2-.54,.16-.23,.27-.25,.52-.12l.35,.19c.23,.11,.27,.27,.12,.51-.4,.65-1.12,.97-2.19,.97-1.58,0-2.33-.84-2.33-2.17v-1.2Zm3.52-.16c0-.66-.4-1.03-1.17-1.03s-1.17,.37-1.17,1.03v.22h2.34v-.22Z"></path><path class="b" d="M98.8,20.8c1.42,0,2.11,.73,2.11,2.04v3.05c0,.23-.08,.31-.31,.31h-.56c-.23,0-.3-.08-.3-.31v-3.02c0-.66-.36-.99-1.11-.99-.32,0-.65,.04-.97,.13-.05,.02-.07,.05-.07,.1v3.78c0,.23-.07,.31-.3,.31h-.56c-.23,0-.31-.08-.31-.31v-4.16c0-.32,.07-.45,.4-.58,.58-.23,1.24-.35,2-.35"></path><path class="b" d="M101.77,22.92c0-1.38,.71-2.12,2.12-2.12,.31,0,.71,.04,1.21,.13v-1.92c0-.23,.07-.31,.3-.31h.56c.23,0,.31,.08,.31,.31v6.45c0,.32-.08,.43-.41,.56-.58,.21-1.21,.32-1.89,.32-1.47,0-2.2-.68-2.2-2.05v-1.39Zm3.32-.91c-.41-.09-.73-.13-.98-.13-.78,0-1.16,.35-1.16,1.07v1.32c0,.68,.38,1.01,1.14,1.01,.35,0,.67-.04,.93-.11,.05-.02,.08-.06,.08-.11v-3.05Z"></path><path class="b" d="M107.15,22.83c0-1.27,.84-2.03,2.33-2.03s2.34,.76,2.34,2.03v1.5c0,1.27-.84,2.03-2.34,2.03s-2.33-.76-2.33-2.03v-1.5Zm3.5,0c0-.62-.43-.96-1.17-.96s-1.15,.34-1.15,.96v1.5c0,.61,.41,.96,1.15,.96s1.17-.35,1.17-.96v-1.5Z"></path><path class="b" d="M116.29,25.14c.23,0,.3,.08,.3,.31v.44c0,.23-.07,.31-.3,.31h-3.55c-.23,0-.31-.08-.31-.31v-.44c0-.13,.04-.23,.11-.31l2.48-3.12h-2.23c-.23,0-.31-.08-.31-.31v-.45c0-.23,.08-.3,.31-.3h3.45c.23,0,.3,.07,.3,.3v.45c0,.13-.04,.24-.11,.33l-2.5,3.1h2.36Z"></path><path class="b" d="M119.39,20.8c1.45,0,2.17,.7,2.17,2.09v2.62c0,.35-.08,.46-.36,.58-.41,.17-1.01,.26-1.82,.26-.86,0-1.45-.13-1.77-.41-.32-.26-.49-.68-.49-1.24,0-1.21,.65-1.63,2.3-1.63,.07,0,.4,.02,.97,.05v-.28c0-.66-.28-1-1.01-1-.5,0-.85,.16-1.06,.49-.15,.21-.2,.23-.44,.15l-.41-.17c-.22-.1-.28-.25-.17-.46,.36-.7,1.06-1.05,2.1-1.05m.99,3.29c-.71-.03-1.07-.05-1.1-.05-.73,0-.97,.21-.97,.66s.21,.68,.95,.68c.44,0,.77-.03,1.01-.08,.07-.03,.11-.07,.11-.14v-1.06Z"></path></svg>