<?xml version="1.0" encoding="iso-8859-1"?>
<!-- Generator: Adobe Illustrator 19.0.0, SVG Export Plug-In . SVG Version: 6.00 Build 0)  -->
<svg version="1.1" id="Capa_1" xmlns="http://www.w3.org/2000/svg" xmlns:xlink="http://www.w3.org/1999/xlink" x="0px" y="0px"
	 viewBox="0 0 512 512" style="enable-background:new 0 0 512 512;" xml:space="preserve">
<path style="fill:#FECA57;" d="M255.219,0c-21.264,0-38.502,17.238-38.502,38.502v40.553h77.004V38.502
	C293.721,17.238,276.483,0,255.219,0z M255.464,50.458c-6.742,0-12.208-5.466-12.208-12.208c0-6.743,5.466-12.208,12.208-12.208
	c6.743,0,12.209,5.466,12.209,12.208S262.207,50.458,255.464,50.458z"/>
<path style="fill:#F4B537;" d="M265.521,1.405C262.241,0.496,258.789,0,255.219,0c-21.264,0-38.502,17.238-38.502,38.502v40.553
	h20.605V38.502C237.322,20.808,249.262,5.912,265.521,1.405z"/>
<path style="fill:#E4EAF8;" d="M405.432,97.274h-40.037H146.603h-40.036c-7.689,0-13.98,6.291-13.98,13.979V498.02
	c0,7.689,6.291,13.979,13.98,13.979h298.866c7.688,0,13.98-6.291,13.98-13.979V111.254
	C419.411,103.565,413.12,97.274,405.432,97.274z"/>
<path style="fill:#D8DCE5;" d="M113.192,498.021V111.254c0-7.689,6.291-13.979,13.979-13.979h-20.605
	c-7.689,0-13.98,6.291-13.98,13.979v386.767c0,7.689,6.291,13.979,13.98,13.979h20.605C119.482,512,113.192,505.709,113.192,498.021
	z"/>
<path style="fill:#54A0FF;" d="M351.416,185.625H160.582c-7.689,0-13.98,6.291-13.98,13.98v247.618c0,7.689,6.291,13.98,13.98,13.98
	h190.833c7.689,0,13.98-6.291,13.98-13.98V199.604C365.395,191.916,359.104,185.625,351.416,185.625z"/>
<path style="fill:#338DEF;" d="M163.383,447.223V199.604c0-7.689,6.291-13.98,13.98-13.98h-16.78
	c-7.689,0-13.979,6.291-13.979,13.98v247.618c0,7.689,6.291,13.979,13.979,13.979h16.78
	C169.674,461.202,163.383,454.911,163.383,447.223z"/>
<path style="fill:#576574;" d="M255.465,207.172c-31.28,0-56.636,25.357-56.636,56.637v22.413c3.785-3.509,9.17-5.416,14.427-4.714
	v-2.822c0-2.244,1.916-4.016,4.137-3.847c21.897,1.573,44.182-5.385,61.032-16.392c1.573-1.028,3.656-0.772,4.934,0.602
	c14.405,15.484,14.318,14.885,14.318,16.907v5.542c5.762-0.864,10.873,0.917,14.424,4.219v-21.906
	C312.101,232.529,286.745,207.172,255.465,207.172z"/>
<path style="fill:#3E4B5A;" d="M214.03,263.809c0-28.701,21.352-52.399,49.036-56.114c-2.488-0.334-5.022-0.522-7.601-0.522
	c-31.28,0-56.636,25.356-56.636,56.637v22.413c3.785-3.509,9.17-5.416,14.427-4.713v-2.822c0-0.871,0.292-1.669,0.775-2.312v-12.567
	H214.03z"/>
<g>
	<path style="fill:#F2BB88;" d="M296.927,279.245v31.025c0,0.336-0.018,0.668-0.026,1.004c10.979,1.662,19.578-6.27,19.578-16.013
		C316.479,285.499,307.873,277.604,296.927,279.245z"/>
	<path style="fill:#F2BB88;" d="M214.006,310.27v-31.013c-9.558-1.276-19.553,6.059-19.553,16.004c0,9.73,8.58,17.677,19.577,16.013
		C214.022,310.939,214.006,310.605,214.006,310.27z"/>
</g>
<g>
	<path style="fill:#E3A76F;" d="M310.662,282.86c-3.509-2.911-8.336-4.424-13.736-3.615v31.025c0,0.336-0.017,0.668-0.026,1.004
		c5.416,0.82,10.25-0.698,13.761-3.613V282.86H310.662z"/>
	<path style="fill:#E3A76F;" d="M214.005,307.663c-3.609-2.996-5.817-7.469-5.817-12.402c0-4.801,2.333-8.989,5.817-11.898v-4.105
		c-9.558-1.276-19.553,6.059-19.553,16.004c0,9.73,8.579,17.677,19.577,16.013c-0.008-0.335-0.024-0.668-0.024-1.003V307.663z"/>
</g>
<path style="fill:#F2BB88;" d="M256.068,351.128c-9.15,0-17.191-2.512-23.768-6.714v22.228l23.666,29.212l23.666-29.212v-22.854
	C272.928,348.412,264.811,351.128,256.068,351.128z"/>
<path style="fill:#E3A76F;" d="M247.457,350.345c-5.642-1.047-10.732-3.104-15.156-5.931v22.228l15.156,18.708V350.345z"/>
<path style="fill:#E4EAF8;" d="M342.239,389.387l-62.607-24.246l-23.666,29.212L232.3,365.141l-62.541,24.246
	c0,0-23.156,9.52-23.156,35.917v23.98c0.001,7.688,6.291,13.978,13.979,13.978h190.833c7.689,0,13.979-6.291,13.979-13.98v-23.979
	C365.395,398.907,342.239,389.387,342.239,389.387z"/>
<path style="fill:#D8DCE5;" d="M160.582,463.263h1.177v-44.779c0-18.111,10.899-28.276,17.742-32.874l-9.742,3.777
	c0,0-23.156,9.52-23.156,35.917v23.979C146.603,456.972,152.894,463.263,160.582,463.263z"/>
<path style="fill:#F2D1A5;" d="M283.358,257.547c-1.279-1.374-3.361-1.63-4.934-0.602c-16.85,11.007-39.135,17.965-61.032,16.392
	c-2.221-0.168-4.137,1.604-4.137,3.847v33.835c0,21.746,17.039,41.608,42.813,41.608c22.943,0,41.609-18.666,41.609-41.608v-36.567
	C297.677,272.432,297.764,273.031,283.358,257.547z"/>
<path style="fill:#F2BB88;" d="M228.411,311.021v-37.595c-3.666,0.195-7.348,0.176-11.019-0.088
	c-2.221-0.168-4.137,1.604-4.137,3.847v33.835c0,21.746,17.039,41.608,42.813,41.608c2.378,0,4.706-0.211,6.976-0.596
	C243.412,348.703,228.411,331.585,228.411,311.021z"/>
<g>
	<path style="fill:#D8DCE5;" d="M284.541,409.363l17.697-35.467l-22.606-8.755l-23.666,29.212l23.073,16.387
		C280.907,412.066,283.518,411.413,284.541,409.363z"/>
	<path style="fill:#D8DCE5;" d="M227.424,409.363l-17.697-35.467l22.606-8.755l23.666,29.212l-23.073,16.387
		C231.058,412.066,228.447,411.413,227.424,409.363z"/>
</g>
<path style="fill:#EE5253;" d="M255.997,394.373v-0.02l-0.014,0.01l-0.014-0.01v0.02l-16.782,11.919l7.933,11.939
	c6.397,0,11.33,0,17.727,0l7.933-11.939L255.997,394.373z"/>
<path style="fill:#D83941;" d="M264.381,400.327l-8.384-5.954v-0.02l-0.014,0.01l-0.014-0.01v0.02l-16.782,11.919l7.933,11.939
	c6.172,0,10.966,0,16.796,0l-6.513-9.803c-0.791-1.19-0.494-2.794,0.672-3.621L264.381,400.327z"/>
<path style="fill:#FF6B6B;" d="M247.119,418.231l-6.1,45.032h29.927l-6.1-45.032C258.447,418.231,253.518,418.231,247.119,418.231z"
	/>
<path style="fill:#EE5253;" d="M247.119,418.231l-6.1,45.032h16.796l6.099-45.032C258.059,418.231,253.315,418.231,247.119,418.231z
	"/>
<g>
	<path style="fill:#D8DCE5;" d="M193.74,463.263v-28.885c0-4.267-3.459-7.727-7.727-7.727c-4.267,0-7.727,3.459-7.727,7.727v28.885
		H193.74z"/>
	<path style="fill:#D8DCE5;" d="M333.712,463.263v-28.885c0-4.267-3.459-7.727-7.727-7.727s-7.727,3.459-7.727,7.727v28.885H333.712
		z"/>
	<path style="fill:#D8DCE5;" d="M287.236,159.874h-63.544c-4.267,0-7.727-3.459-7.727-7.727c0-4.267,3.459-7.727,7.727-7.727h63.544
		c4.267,0,7.727,3.459,7.727,7.727S291.504,159.874,287.236,159.874z"/>
</g>
<path style="fill:#576574;" d="M351.416,75.964H160.582c-7.689,0-13.98,6.291-13.98,13.98v14.661c0,7.689,6.291,13.98,13.98,13.98
	h190.833c7.689,0,13.98-6.291,13.98-13.98V89.944C365.395,82.255,359.104,75.964,351.416,75.964z"/>
<path style="fill:#3E4B5A;" d="M351.416,101.07H160.582c-7.175,0-13.128-5.48-13.892-12.46c-0.046,0.44-0.087,0.882-0.087,1.334
	v14.661c0,7.689,6.291,13.979,13.98,13.979h190.833c7.689,0,13.979-6.291,13.979-13.979V89.944c0-0.452-0.042-0.893-0.087-1.334
	C364.544,95.59,358.591,101.07,351.416,101.07z"/>
<g>
</g>
<g>
</g>
<g>
</g>
<g>
</g>
<g>
</g>
<g>
</g>
<g>
</g>
<g>
</g>
<g>
</g>
<g>
</g>
<g>
</g>
<g>
</g>
<g>
</g>
<g>
</g>
<g>
</g>
</svg>
